<svg version="1.2" xmlns="http://www.w3.org/2000/svg" viewBox="0 0 62 62" width="62" height="62"><defs><clipPath clipPathUnits="userSpaceOnUse" id="cp1"><path d="m-1558-2786h1920v3928h-1920z"/></clipPath></defs><style>.a{fill:#ebebeb}.b{fill:#bbb}</style><g clip-path="url(#cp1)"><path class="a" d="m30.9 61.1c-16.9 0-30.5-13.6-30.5-30.5 0-16.9 13.6-30.6 30.5-30.6 16.9 0 30.6 13.7 30.6 30.6 0 16.9-13.7 30.5-30.6 30.5z"/><path class="b" d="m39.6 16.2c0 4.8-3.8 8.7-8.7 8.7-4.8 0-8.7-3.9-8.7-8.7 0-4.9 3.9-8.7 8.7-8.7 4.9 0 8.7 3.8 8.7 8.7z"/><path  d="m30.9 27.8c-8.9 0-16.1 7.3-16.1 16.2 0 2.3 1.9 4.2 4.2 4.2h23.9c2.3 0 4.2-1.9 4.2-4.2 0-8.9-7.2-16.2-16.2-16.2z"/></g></svg>